<svg width="64" height="64" viewBox="0 0 64 64" fill="none" xmlns="http://www.w3.org/2000/svg">
<circle cx="32" cy="32" r="32" fill="#245BA7"/>
<path d="M32 28C33.6569 28 35 26.6569 35 25C35 23.3431 33.6569 22 32 22C30.3431 22 29 23.3431 29 25C29 26.6569 30.3431 28 32 28Z" stroke="white" stroke-width="1.5" stroke-linecap="round" stroke-linejoin="round"/>
<path d="M32 42V28" stroke="white" stroke-width="1.5" stroke-linecap="round" stroke-linejoin="round"/>
<path d="M25 32H22C22 34.6522 23.0536 37.1957 24.9289 39.0711C26.8043 40.9464 29.3478 42 32 42C34.6522 42 37.1957 40.9464 39.0711 39.0711C40.9464 37.1957 42 34.6522 42 32H39" stroke="white" stroke-width="1.5" stroke-linecap="round" stroke-linejoin="round"/>
</svg>
