<svg width="101" height="101" viewBox="0 0 101 101" fill="none" xmlns="http://www.w3.org/2000/svg">
<circle cx="50.5" cy="50.5" r="49.7" stroke="#77899E" stroke-width="1.6"/>
<path d="M15.5 86L86.5 15" stroke="#77899E" stroke-width="1.5"/>
<path d="M15.5 15L86.5 86" stroke="#77899E" stroke-width="1.5"/>
<circle cx="51" cy="51" r="34.2" fill="white" stroke="#77899E" stroke-width="1.6"/>
<path d="M4.5 30.5C4.5 29.83 4.5 28.1832 4.5 26.0013C4.5 14.9556 13.4543 6 24.5 6H28" stroke="#77899E" stroke-width="1.5"/>
<path d="M96.5 71C96.5 71.67 96.5 73.3168 96.5 75.4987C96.5 86.5444 87.5457 95.5 76.5 95.5H73" stroke="#77899E" stroke-width="1.5"/>
<path d="M96.5 30.5C96.5 29.83 96.5 28.1832 96.5 26.0013C96.5 14.9556 87.5457 6 76.5 6H73" stroke="#77899E" stroke-width="1.5"/>
<path d="M4.5 71C4.5 71.67 4.5 73.3168 4.5 75.4987C4.5 86.5444 13.4543 95.5 24.5 95.5H28" stroke="#77899E" stroke-width="1.5"/>
</svg>
