<svg width="482" height="27" viewBox="0 0 482 27" fill="none" xmlns="http://www.w3.org/2000/svg">
<path d="M1 26L23.4876 9.13427C38.3597 -2.01981 59.0095 -1.24168 73 11V11V11C86.7412 23.0235 107.259 23.0235 121 11V11C134.741 -1.02353 155.259 -1.02353 169 11V11C182.741 23.0235 203.259 23.0235 217 11V11C230.741 -1.02352 251.259 -1.02353 265 11V11C278.741 23.0235 299.259 23.0235 313 11V11C326.741 -1.02352 347.259 -1.02352 361 11V11C374.741 23.0235 395.259 23.0235 409 11L409.917 10.1976C423.373 -1.57636 443.234 -2.32475 457.537 8.40311L481 26" stroke="#EFF0F2"/>
<path d="M1 26L23.4876 9.13427C38.3597 -2.01981 59.0095 -1.24168 73 11V11V11C86.7412 23.0235 107.259 23.0235 121 11V11C134.741 -1.02353 155.259 -1.02353 169 11V11C182.741 23.0235 203.259 23.0235 217 11V11C230.741 -1.02352 251.259 -1.02353 265 11V11C278.741 23.0235 299.259 23.0235 313 11V11C326.741 -1.02352 347.259 -1.02352 361 11V11C374.741 23.0235 395.259 23.0235 409 11L409.917 10.1976C423.373 -1.57636 443.234 -2.32475 457.537 8.40311L481 26" stroke="black" stroke-opacity="0.01"/>
</svg>
